<svg data-v-0dd9719b="" version="1.0" xmlns="http://www.w3.org/2000/svg" xmlns:xlink="http://www.w3.org/1999/xlink" width="100%" height="100%" viewBox="0 0 340.000000 250.000000" preserveAspectRatio="xMidYMid meet" color-interpolation-filters="sRGB" style="margin: auto;"> <rect data-v-0dd9719b="" x="0" y="0" width="100%" height="100%" fill="#ffffff" fill-opacity="1" class="background"></rect> <rect data-v-0dd9719b="" x="0" y="0" width="100%" height="100%" fill="url(#watermark)" fill-opacity="1" class="watermarklayer"></rect> <g data-v-0dd9719b="" fill="#333333" class="icon-text-wrapper icon-svg-group iconsvg" transform="translate(45.25,94.969970703125)"><g class="iconsvg-imagesvg" transform="translate(0,0)"><g><rect fill="#333333" fill-opacity="0" stroke-width="2" x="0" y="0" width="60" height="60.06006006006006" class="image-rect"></rect> <svg filter="url(#colors7369077447)" x="0" y="0" width="60" height="60.06006006006006" filtersec="colorsf784170615" class="image-svg-svg primary" style="overflow: visible;"><svg xmlns="http://www.w3.org/2000/svg" viewBox="0 0 103.5 103.6"><path d="M101.5 51.8c0 27.5-22.3 49.8-49.8 49.8C24.3 101.5 2 79.2 2 51.8 2 24.3 24.3 2 51.8 2c27.4 0 49.7 22.3 49.7 49.8zM26.9 8.7L76.6 95M60 100.8L13.4 20m13.4 75l15-25.9m11.1 32.4l3.8-6.5M8.1 27.9l28.8 49.8M19.4 90.6l12.4-21.4M43 101.5l8.7-15m-24.8-8.8L3.9 38m9.5 45.7l8.3-14.5m25 8.5L34.3 99.2M2 51.8l14.9 26m34.9-26L76.6 8.6m7 4.9L56.7 60.1M90 19.9L61.6 69.1m15 25.9l-15-25.9M46.7 95l3.8 6.5m44.9-73.7L66.5 77.7M83.6 90l-12-20.8M34.7 5l22 38.2m3.3 57.6l-8.3-14.4m47.9-48.6L76.5 77.7m13.5 6l-8.3-14.5M43.3 2.7l18.4 32m7.1 63.8l-49-84.9m81.7 38.2l-15.1 26M52.9 2l13.8 23.9M63.6 3.4l8 13.8" fill="none" stroke="#333" stroke-width="4" stroke-miterlimit="10"></path></svg></svg> <defs><filter id="colors7369077447"><feColorMatrix type="matrix" values="0 0 0 0 0.19921875  0 0 0 0 0.19921875  0 0 0 0 0.19921875  0 0 0 1 0" class="icon-fecolormatrix"></feColorMatrix></filter> <filter id="colorsf784170615"><feColorMatrix type="matrix" values="0 0 0 0 0.99609375  0 0 0 0 0.99609375  0 0 0 0 0.99609375  0 0 0 1 0" class="icon-fecolormatrix"></feColorMatrix></filter> <filter id="colorsb5823952246"><feColorMatrix type="matrix" values="0 0 0 0 0  0 0 0 0 0  0 0 0 0 0  0 0 0 1 0" class="icon-fecolormatrix"></feColorMatrix></filter></defs></g></g> <g transform="translate(67,15.050029754638672)"><g data-gra="path-name" fill-rule="" class="tp-name iconsvg-namesvg"><g transform="scale(1)"><g><path d="M16.61-29.96L10.19 0 0 0 6.37-29.96 16.61-29.96ZM46.99-29.96L40.53 0 29.49 0 24.25-21.66 19.63 0 15.38 0 21.75-29.96 33.03-29.96 37.98-8.02 42.65-29.96 46.99-29.96ZM45.77 0L52.14-29.96 72-29.96 71.25-26.37 61.57-26.37 59.73-17.74 67.8-17.74 67.05-14.11 58.98-14.11 55.96 0 45.77 0ZM85.54-29.96L79.12 0 68.93 0 75.3-29.96 85.54-29.96ZM115.93-29.96L109.46 0 98.42 0 93.18-21.66 88.56 0 84.31 0 90.68-29.96 101.96-29.96 106.91-8.02 111.59-29.96 115.93-29.96ZM131.31-29.96L124.89 0 114.7 0 121.07-29.96 131.31-29.96ZM159.62-29.96L158.82-26.37 151.22-26.37 145.6 0 135.41 0 141.03-26.37 133.53-26.37 134.37-29.96 159.62-29.96ZM156.27 0L162.64-29.96 182.5-29.96 181.75-26.37 172.12-26.37 170.14-17.27 178.21-17.27 177.45-13.73 169.38-13.73 167.21-3.63 176.84-3.63 176.13 0 156.27 0Z" transform="translate(0, 29.959999084472656)"></path></g> <!----> <!----> <!----> <!----> <!----> <!----> <!----></g></g> <!----></g></g></svg>